<svg xmlns="http://www.w3.org/2000/svg" width="24" height="24" viewBox="0 0 24 24"><path d="M3,18H3a4,4,0,0,1,4-4h4a4,4,0,0,1,4,4h0" fill="none" stroke="#535353" stroke-linecap="round" stroke-linejoin="round" stroke-width="2"/><path d="M16,4.651a2.5,2.5,0,0,1,0,5" fill="none" stroke="#535353" stroke-linecap="round" stroke-linejoin="round" stroke-width="2"/><path d="M11.4,5A3.4,3.4,0,1,1,6.6,5,3.4,3.4,0,0,1,11.4,5" fill="none" stroke="#535353" stroke-linecap="round" stroke-linejoin="round" stroke-width="2"/><path d="M17,13a4,4,0,0,1,4,4h0" fill="none" stroke="#535353" stroke-linecap="round" stroke-linejoin="round" stroke-width="2"/><path d="M0,0H24V24H0Z" fill="none"/></svg>