<svg xmlns="http://www.w3.org/2000/svg" width="135" height="45" viewBox="0 0 135 45"><path d="M221.773,401.781a5.209,5.209,0,1,1-5.209,5.209,5.209,5.209,0,0,1,5.209-5.209m0-4.728a9.937,9.937,0,1,1-9.937,9.937A9.937,9.937,0,0,1,221.773,397.053Z" transform="translate(-185.463 -389.033)" fill="#f15d5c" fill-rule="evenodd"/><path d="M869.1,364.4v4.93H865.53V373.4H869.1v8.268c0,4.774,2.717,7.142,6.871,6.987a10.581,10.581,0,0,0,3.921-.815l-1.32-4.037a5.412,5.412,0,0,1-2.29.582c-1.475,0-2.484-.893-2.484-2.717V373.4h5.318v-4.076h-5.279v-1.084c0-3.068-1.9-3.944-4.736-3.846" transform="translate(-744.892 -360.924)" fill="#f15d5c" fill-rule="evenodd"/><path d="M528.205,344.3a13.954,13.954,0,0,1-19.686,19.686l3.643-3.643a8.821,8.821,0,0,0,12.4-12.4ZM509.7,358.107a11.773,11.773,0,0,1-1.244-13.4,12.447,12.447,0,0,0-.913,15.554Zm2.265-8.634a2,2,0,1,1,3.86,1.034A2,2,0,1,1,511.961,349.473Zm7.574,6.939a2,2,0,1,1,3.86,1.034A2,2,0,1,1,519.535,356.412Zm-11.191-13.325a13.955,13.955,0,0,1,18.493-.154l-2.217,2.217-1.139,1.139-.287.287-12.4,12.4h0l-3.643,3.643a13.955,13.955,0,0,1,.154-18.492l-.145-.145a.387.387,0,0,0-.324-.124s-.289-.007-.871.018c-.4.017-.492-.111-.361-.373a5.523,5.523,0,0,1,2.117-2.117c.262-.13.39-.034.373.361-.025.582-.018.871-.018.871a.387.387,0,0,0,.124.324Z" transform="translate(-434.974 -339.506)" fill="#f15d5c" fill-rule="evenodd"/><path d="M53.226,341.589H39.911v.984a3.578,3.578,0,0,0,3.7,3.791H48.1v10.817c0,4.121-2.174,7.349-6.832,7.349-4.619,0-6.871-2.374-6.871-7.039H29.353c0,7.7,4.969,11.852,11.917,11.852,7.492,0,11.956-5.124,11.956-12.163Z" transform="translate(-29.353 -341.299)" fill="#f15d5c" fill-rule="evenodd"/><path d="M564.008,575.692a2.247,2.247,0,0,0-2.184-1.1c-1.025.008-2.152.477-2.152,1.62,0,1.247,1.048,1.549,2.184,1.684.738.08,1.287.294,1.287.818,0,.6-.619.834-1.279.834a1.585,1.585,0,0,1-1.565-.882l-.874.453a2.308,2.308,0,0,0,2.422,1.366c1.239,0,2.335-.532,2.335-1.771,0-1.327-1.08-1.628-2.24-1.771-.667-.079-1.239-.214-1.239-.7,0-.413.373-.738,1.152-.738a1.593,1.593,0,0,1,1.318.619Zm-7.752,4.646H557.3v-4.615h1.763v-.953h-4.575v.953h1.763Zm-6.56-5.567h-.85v5.567h1.048v-3.706l2.955,3.706h.85v-5.567H552.65v3.746Zm-3.137.016v3.185c0,.953-.492,1.533-1.358,1.533a1.364,1.364,0,0,1-1.438-1.533v-3.185h-1.04v3.185a2.319,2.319,0,0,0,2.47,2.486,2.258,2.258,0,0,0,2.406-2.486v-3.185Zm-9.427,2.828a1.83,1.83,0,1,1,3.645-.008,1.824,1.824,0,1,1-3.645.008Zm1.85-2.947A2.812,2.812,0,0,0,536.1,577.6a2.855,2.855,0,1,0,5.71-.008A2.765,2.765,0,0,0,538.982,574.668Zm-3.947,4.249a2.046,2.046,0,0,1-1.4.564,1.782,1.782,0,0,1-1.914-1.882,1.823,1.823,0,0,1,1.914-1.93,1.911,1.911,0,0,1,1.342.524l.7-.675a2.867,2.867,0,0,0-2.041-.85,2.8,2.8,0,0,0-2.947,2.931,2.733,2.733,0,0,0,2.947,2.867,2.93,2.93,0,0,0,2.112-.826Zm-5.154-3.224a2.247,2.247,0,0,0-2.184-1.1c-1.025.008-2.152.477-2.152,1.62,0,1.247,1.048,1.549,2.184,1.684.739.08,1.287.294,1.287.818,0,.6-.62.834-1.279.834a1.584,1.584,0,0,1-1.565-.882l-.874.453a2.308,2.308,0,0,0,2.422,1.366c1.239,0,2.335-.532,2.335-1.771,0-1.327-1.08-1.628-2.24-1.771-.667-.079-1.239-.214-1.239-.7,0-.413.373-.738,1.152-.738a1.593,1.593,0,0,1,1.318.619Zm-5.464,4.646v-5.567h-1.04v5.567Zm-5.965-4.575H519.6a1.784,1.784,0,0,1,0,3.566h-1.144Zm1.144-.993h-2.184v5.567H519.6a2.784,2.784,0,0,0,0-5.567Zm-7.887,5.567v-2.057H514.5v-.969h-2.788V575.8h2.947v-1.009H510.66v5.552ZM505,577.614a1.83,1.83,0,1,1,3.645-.008,1.824,1.824,0,1,1-3.645.008Zm1.85-2.947a2.812,2.812,0,0,0-2.883,2.931,2.855,2.855,0,1,0,5.71-.008A2.766,2.766,0,0,0,506.848,574.668Zm57.684-7.354h-1.247v.048l2.136,3.221v2.3h1.048v-2.3l2.216-3.221v-.048h-1.263l-1.477,2.3Zm-5.941,2.843a1.83,1.83,0,1,1,3.645-.008,1.824,1.824,0,1,1-3.645.008Zm1.851-2.947a2.812,2.812,0,0,0-2.883,2.931,2.855,2.855,0,1,0,5.71-.008A2.766,2.766,0,0,0,560.442,567.21Zm-3.8.1h-2.724v.977h1.676V570.5a1.343,1.343,0,0,1-1.4,1.5,1.257,1.257,0,0,1-1.406-1.44h-1.032a2.257,2.257,0,0,0,2.438,2.425,2.324,2.324,0,0,0,2.446-2.489Zm-7.235,4.535h-3.121v-1.255h3.01v-.977h-3.01V568.33H549.4v-1.016H545.24v5.567H549.4Zm-5.48,1.033v-5.552h-1.04v2.343h-2.732v-2.343H539.1v5.552h1.048v-2.24h2.732v2.24Zm-8.427,0h1.048v-4.614h1.763v-.953h-4.575v.953H535.5Zm-7.466-5.567h-1.247v.048l2.136,3.221v2.3h1.049v-2.3l2.216-3.221v-.048h-1.263l-1.477,2.3Zm-5.941,2.843a1.83,1.83,0,1,1,3.646-.008,1.824,1.824,0,1,1-3.646.008Zm1.851-2.947a2.812,2.812,0,0,0-2.883,2.931,2.855,2.855,0,1,0,5.71-.008A2.765,2.765,0,0,0,523.939,567.21Zm-3.8.1h-2.724v.977h1.676V570.5a1.343,1.343,0,0,1-1.4,1.5,1.257,1.257,0,0,1-1.406-1.44h-1.033a2.257,2.257,0,0,0,2.438,2.425,2.324,2.324,0,0,0,2.446-2.489Zm-9.713,0h-.85v5.567h1.048v-3.706l2.955,3.706h.85v-5.567h-1.048v3.746Zm-1.97,4.535h-3.121v-1.255h3.01v-.977h-3.01V568.33h3.121v-1.016h-4.162v5.567h4.162Z" transform="translate(-433.686 -535.481)" fill="#f15d5c" fill-rule="evenodd"/><path d="M716.866,399.558v10.054c0,5.939,3.182,9.394,9.355,9.394s9.355-3.455,9.355-9.394V399.558H730.84v10.015c0,2.911-1.591,5.124-4.619,5.124s-4.619-2.213-4.619-5.124v-6.307c0-2.4-1.449-3.708-4.232-3.708Z" transform="translate(-616.934 -391.189)" fill="#f15d5c" fill-rule="evenodd"/><path d="M360.25,399.558l-5.1,12.574-4.02-9.9c-.717-1.768-2.354-2.672-4.749-2.672h-1.848l7.86,19.363-1.8,4.428q-1.011,3.659,3.618,4l11.281-27.787Z" transform="translate(-298.963 -391.194)" fill="#f15d5c" fill-rule="evenodd"/></svg>